<?xml version="1.0" encoding="UTF-8"?>
<svg width="26px" height="26px" viewBox="0 0 26 26" version="1.1" xmlns="http://www.w3.org/2000/svg" xmlns:xlink="http://www.w3.org/1999/xlink">
    <!-- Generator: Sketch 52.6 (67491) - http://www.bohemiancoding.com/sketch -->
    <title>numbers-clock</title>
    <desc>Created with Sketch.</desc>
    <g id="Page-1" stroke="none" stroke-width="1" fill="none" fill-rule="evenodd">
        <g id="numbers-clock" fill="#FFFFFF">
            <path d="M13,0.205 C5.934,0.205 0.205,5.934 0.205,13 C0.205,20.066 5.934,25.795 13,25.795 C20.066,25.795 25.795,20.066 25.795,13 C25.795,5.934 20.066,0.205 13,0.205 Z M13,24.729 C6.533,24.729 1.271,19.468 1.271,13 C1.271,6.532 6.532,1.271 13,1.271 C19.468,1.271 24.729,6.532 24.729,13 C24.729,19.467 19.468,24.729 13,24.729 Z" id="Shape" fill-rule="nonzero"></path>
            <polygon id="Path" points="13 14.066 6.602 14.066 6.602 15.132 14.066 15.132 14.066 4.513 13 4.513"></polygon>
        </g>
    </g>
</svg>