<?xml version="1.0" encoding="UTF-8"?>
<svg width="28px" height="24px" viewBox="0 0 28 24" version="1.1" xmlns="http://www.w3.org/2000/svg" xmlns:xlink="http://www.w3.org/1999/xlink">
    <!-- Generator: Sketch 52.6 (67491) - http://www.bohemiancoding.com/sketch -->
    <title>numbers-like</title>
    <desc>Created with Sketch.</desc>
    <g id="Page-1" stroke="none" stroke-width="1" fill="none" fill-rule="evenodd">
        <g id="numbers-like" fill="#FFFFFF" fill-rule="nonzero">
            <path d="M19.886,1.115 C23.407,1.115 26.262,3.97 26.262,7.491 C26.262,9.3 25.508,10.93 24.298,12.091 L14.001,22.44 L3.517,11.904 C2.417,10.758 1.739,9.205 1.739,7.491 C1.739,3.969 4.594,1.115 8.115,1.115 C10.767,1.115 13.04,2.735 14.001,5.039 C14.962,2.735 17.235,1.115 19.887,1.115 L19.886,1.115 Z M19.886,0.049 C17.541,0.049 15.387,1.138 14,2.933 C12.614,1.138 10.46,0.049 8.114,0.049 C4.01,0.049 0.672,3.388 0.672,7.491 C0.672,9.419 1.409,11.249 2.747,12.643 L14,23.952 L25.053,12.844 C26.513,11.442 27.328,9.536 27.328,7.492 C27.328,3.388 23.989,0.05 19.886,0.05 L19.886,0.049 Z" id="Shape"></path>
        </g>
    </g>
</svg>