<?xml version="1.0" encoding="UTF-8"?>
<svg width="26px" height="24px" viewBox="0 0 26 24" version="1.1" xmlns="http://www.w3.org/2000/svg" xmlns:xlink="http://www.w3.org/1999/xlink">
    <!-- Generator: Sketch 52.6 (67491) - http://www.bohemiancoding.com/sketch -->
    <title>numbers-portfolio</title>
    <desc>Created with Sketch.</desc>
    <g id="Page-1" stroke="none" stroke-width="1" fill="none" fill-rule="evenodd">
        <g id="numbers-portfolio" fill="#FFFFFF" fill-rule="nonzero">
            <path d="M16.732,3.203 L16.732,0.537 L9.268,0.537 L9.268,3.203 L0.205,3.203 L0.205,23.462 L25.795,23.462 L25.795,3.203 L16.732,3.203 Z M10.334,1.604 L15.665,1.604 L15.665,3.203 L10.334,3.203 L10.334,1.604 Z M9.268,4.27 L24.729,4.27 L24.729,12.8 L16.732,12.8 L16.732,10.667 L9.268,10.667 L9.268,12.8 L1.271,12.8 L1.271,4.27 L9.268,4.27 Z M15.666,11.733 L15.666,14.932 L10.335,14.932 L10.335,11.733 L15.666,11.733 Z M1.271,22.396 L1.271,13.866 L9.268,13.866 L9.268,15.999 L16.732,15.999 L16.732,13.866 L24.729,13.866 L24.729,22.396 L1.272,22.396 L1.271,22.396 Z" id="Shape"></path>
        </g>
    </g>
</svg>