<?xml version="1.0" encoding="UTF-8"?>
<svg width="30px" height="28px" viewBox="0 0 30 28" version="1.1" xmlns="http://www.w3.org/2000/svg" xmlns:xlink="http://www.w3.org/1999/xlink">
    <!-- Generator: Sketch 52.6 (67491) - http://www.bohemiancoding.com/sketch -->
    <title>joy</title>
    <desc>Created with Sketch.</desc>
    <g id="Page-1" stroke="none" stroke-width="1" fill="none" fill-rule="evenodd">
        <g id="joy" fill="#787878">
            <path d="M21.76,10.725 C19.757,10.725 17.665,12.535 15.211,12.792 L15.211,11.746 C15.225,9.177 17.15,6.529 20.367,6.529 L20.977,6.529 C23.937,6.529 26.98,4.186 27.305,0.235 L26.255,0.235 C25.941,3.531 23.424,5.48 20.977,5.48 L20.367,5.48 C16.561,5.48 14.198,8.701 14.164,11.709 L14.162,11.709 L14.162,11.749 C14.162,11.757 14.161,11.766 14.161,11.775 L14.162,11.775 L14.162,12.793 C11.708,12.536 9.616,10.726 7.614,10.726 C5.458,10.726 1.77635684e-15,15.003 1.77635684e-15,23.386 C1.77635684e-15,27.631 2.865,27.765 3.23,27.765 C3.255,27.765 3.268,27.765 3.268,27.765 C5.047,27.765 6.69,26.91 8.743,24.856 C10.796,22.802 11.617,22.264 13.105,22.264 C13.698,22.264 14.411,22.264 14.645,22.264 C14.694,22.264 14.73,22.264 14.73,22.264 C14.963,22.264 15.677,22.264 16.27,22.264 C17.759,22.264 18.579,22.803 20.632,24.856 C22.685,26.909 24.327,27.765 26.107,27.765 C26.107,27.765 26.12,27.765 26.145,27.765 C26.509,27.765 29.374,27.631 29.374,23.386 C29.374,15.003 23.917,10.726 21.761,10.726 L21.76,10.725 Z M26.155,26.717 L26.13,26.716 L26.105,26.716 C24.611,26.716 23.196,25.938 21.372,24.115 C19.357,22.1 18.265,21.216 16.268,21.216 L13.104,21.216 C11.107,21.216 10.015,22.1 8,24.115 C6.176,25.938 4.761,26.716 3.267,26.716 L3.269,26.713 L3.229,26.716 C2.717,26.716 1.048,26.476 1.048,23.386 C1.048,15.376 6.265,11.775 7.613,11.775 C8.405,11.775 9.344,12.197 10.339,12.644 C11.608,13.214 13.046,13.86 14.695,13.873 C16.326,13.86 17.764,13.213 19.034,12.644 C20.029,12.197 20.968,11.775 21.76,11.775 C23.106,11.775 28.324,15.376 28.324,23.386 C28.324,26.477 26.655,26.716 26.155,26.717 Z" id="Shape" fill-rule="nonzero"></path>
            <polygon id="Path" points="8.396 14.921 7.347 14.921 7.347 17.019 5.249 17.019 5.249 18.068 7.347 18.068 7.347 20.166 8.396 20.166 8.396 18.068 10.494 18.068 10.494 17.019 8.396 17.019"></polygon>
            <path d="M19.407,15.967 C18.538,15.967 17.833,16.671 17.833,17.541 C17.833,18.41 18.538,19.115 19.407,19.115 C20.276,19.115 20.98,18.41 20.98,17.541 C20.98,16.671 20.276,15.967 19.407,15.967 Z M19.407,18.065 C19.118,18.065 18.883,17.829 18.883,17.541 C18.883,17.251 19.119,17.016 19.407,17.016 C19.695,17.016 19.931,17.251 19.931,17.541 C19.931,17.83 19.696,18.065 19.407,18.065 Z" id="Shape" fill-rule="nonzero"></path>
            <path d="M23.603,17.016 C22.734,17.016 22.029,17.72 22.029,18.59 C22.029,19.46 22.734,20.164 23.603,20.164 C24.473,20.164 25.176,19.459 25.176,18.59 C25.176,17.72 24.472,17.016 23.603,17.016 Z M23.603,19.114 C23.314,19.114 23.078,18.878 23.078,18.589 C23.078,18.3 23.314,18.065 23.603,18.065 C23.893,18.065 24.127,18.3 24.127,18.589 C24.127,18.878 23.893,19.114 23.603,19.114 Z" id="Shape" fill-rule="nonzero"></path>
        </g>
    </g>
</svg>