<?xml version="1.0" encoding="UTF-8"?>
<svg width="27px" height="28px" viewBox="0 0 27 28" version="1.1" xmlns="http://www.w3.org/2000/svg" xmlns:xlink="http://www.w3.org/1999/xlink">
    <!-- Generator: Sketch 52.6 (67491) - http://www.bohemiancoding.com/sketch -->
    <title>arc</title>
    <desc>Created with Sketch.</desc>
    <g id="Page-1" stroke="none" stroke-width="1" fill="none" fill-rule="evenodd">
        <g id="arc" fill="#787878" fill-rule="nonzero">
            <path d="M22.453,5.573 L25.44,2.586 L25.44,5.039 L26.507,5.039 L26.507,0.772 L22.24,0.772 L22.24,1.839 L24.693,1.839 L21.706,4.826 C18.986,2.266 15.413,0.719 11.413,0.719 C7.04,0.719 2.88,2.639 -3.55271368e-15,5.892 L0.8,6.585 C0.907,6.478 1.013,6.372 1.12,6.265 L10.667,15.865 L7.094,19.438 L4.427,19.438 L0.694,23.171 L4.107,23.171 L4.107,26.584 L7.84,22.851 L7.84,20.184 L11.413,16.611 L20.96,26.158 C20.853,26.265 20.747,26.371 20.64,26.478 L21.333,27.278 C24.64,24.398 26.506,20.238 26.506,15.865 C26.559,11.865 25.013,8.238 22.453,5.572 L22.453,5.573 Z M6.773,22.373 L5.173,23.973 L5.173,22.053 L3.306,22.053 L4.906,20.453 L6.826,20.453 L6.826,22.373 L6.773,22.373 Z M1.867,5.52 C4.427,3.12 7.84,1.787 11.414,1.787 C15.094,1.787 18.454,3.227 20.961,5.52 L11.414,15.067 L1.867,5.52 Z M21.707,6.32 C24.054,8.827 25.44,12.187 25.44,15.867 C25.44,19.44 24.107,22.8 21.707,25.414 L12.16,15.867 L21.707,6.32 Z" id="Shape"></path>
        </g>
    </g>
</svg>