<?xml version="1.0" encoding="UTF-8"?>
<svg width="28px" height="26px" viewBox="0 0 28 26" version="1.1" xmlns="http://www.w3.org/2000/svg" xmlns:xlink="http://www.w3.org/1999/xlink">
    <!-- Generator: Sketch 52.6 (67491) - http://www.bohemiancoding.com/sketch -->
    <title>diamond</title>
    <desc>Created with Sketch.</desc>
    <g id="Page-1" stroke="none" stroke-width="1" fill="none" fill-rule="evenodd">
        <g id="diamond" fill="#787878" fill-rule="nonzero">
            <path d="M27.467,7.667 L21.174,0.2 L6.774,0.2 L0.481,7.667 L0.001,8.2 L0.428,8.733 L13.975,25.8 L27.948,8.2 L27.468,7.667 L27.467,7.667 Z M26.08,7.667 L15.36,7.667 L20.693,1.32 L26.08,7.667 Z M13.92,7.667 L8.373,1.267 L19.36,1.267 L13.92,7.667 Z M7.147,1.427 L12.534,7.667 L1.867,7.667 L7.147,1.427 Z M13.44,8.733 L13.44,23.4 L1.76,8.733 L13.44,8.733 Z M14.507,23.4 L14.507,8.733 L26.134,8.733 L14.507,23.4 Z" id="Shape"></path>
        </g>
    </g>
</svg>