<?xml version="1.0" encoding="UTF-8"?>
<svg width="26px" height="27px" viewBox="0 0 26 27" version="1.1" xmlns="http://www.w3.org/2000/svg" xmlns:xlink="http://www.w3.org/1999/xlink">
    <!-- Generator: Sketch 52.6 (67491) - http://www.bohemiancoding.com/sketch -->
    <title>magic-wand</title>
    <desc>Created with Sketch.</desc>
    <g id="Page-1" stroke="none" stroke-width="1" fill="none" fill-rule="evenodd">
        <g id="magic-wand" transform="translate(-1.000000, 0.000000)" fill="#787878">
            <polygon id="Path" points="0.993 26.236 14.909 12.32 15.663 13.074 1.747 26.99"></polygon>
            <polygon id="Path" points="10.973 8.453 15.24 8.453 15.24 9.52 10.973 9.52 10.973 8.453"></polygon>
            <polygon id="Path" points="22.707 8.453 26.974 8.453 26.974 9.52 22.707 9.52"></polygon>
            <polygon id="Path" points="18.44 12.72 19.507 12.72 19.507 16.987 18.44 16.987 18.44 12.72"></polygon>
            <polygon id="Path" points="18.44 0.987 19.507 0.987 19.507 5.254 18.44 5.254"></polygon>
            <polygon id="Path" points="24.991 3.717 21.974 6.734 21.22 5.98 24.237 2.963 24.991 3.717"></polygon>
            <polygon id="Path" points="24.246 15.042 21.229 12.025 21.983 11.271 25 14.288 24.246 15.042"></polygon>
            <polygon id="Path" points="15.986 6.741 12.969 3.724 13.723 2.97 16.74 5.987"></polygon>
        </g>
    </g>
</svg>