<?xml version="1.0" encoding="UTF-8"?>
<svg width="18px" height="30px" viewBox="0 0 18 30" version="1.1" xmlns="http://www.w3.org/2000/svg" xmlns:xlink="http://www.w3.org/1999/xlink">
    <!-- Generator: Sketch 52.6 (67491) - http://www.bohemiancoding.com/sketch -->
    <title>phone</title>
    <desc>Created with Sketch.</desc>
    <g id="Page-1" stroke="none" stroke-width="1" fill="none" fill-rule="evenodd">
        <g id="phone" fill="#787878">
            <path d="M16.086,0.606 L1.913,0.606 C1.116,0.606 0.469,1.253 0.469,2.05 L0.469,27.951 C0.469,28.749 1.116,29.395 1.913,29.395 L16.086,29.395 C16.883,29.395 17.53,28.749 17.53,27.951 L17.53,2.05 C17.53,1.253 16.883,0.606 16.086,0.606 Z M16.464,27.951 C16.464,28.159 16.295,28.328 16.087,28.328 L1.914,28.328 C1.706,28.328 1.537,28.159 1.537,27.951 L1.537,23.001 L16.465,23.001 L16.465,27.951 L16.464,27.951 Z M16.464,21.934 L1.536,21.934 L1.536,4.892 L16.464,4.892 L16.464,21.934 Z M16.464,3.826 L1.536,3.826 L1.536,2.05 C1.536,1.842 1.705,1.672 1.913,1.672 L16.086,1.672 C16.294,1.672 16.463,1.842 16.463,2.05 L16.463,3.826 L16.464,3.826 Z" id="Shape" fill-rule="nonzero"></path>
            <polygon id="Path" points="7.401 25.129 10.6 25.129 10.6 26.195 7.401 26.195 7.401 25.129"></polygon>
        </g>
    </g>
</svg>