<?xml version="1.0" encoding="UTF-8"?>
<svg width="29px" height="30px" viewBox="0 0 29 30" version="1.1" xmlns="http://www.w3.org/2000/svg" xmlns:xlink="http://www.w3.org/1999/xlink">
    <!-- Generator: Sketch 52.6 (67491) - http://www.bohemiancoding.com/sketch -->
    <title>paint-bucket</title>
    <desc>Created with Sketch.</desc>
    <g id="Page-1" stroke="none" stroke-width="1" fill="none" fill-rule="evenodd">
        <g id="paint-bucket" transform="translate(-1.000000, 0.000000)" fill="#787878" fill-rule="nonzero">
            <path d="M23.347,13.827 L12.947,3.374 L12.734,3.534 L12.734,3.267 C12.734,1.507 11.294,0.067 9.534,0.067 C7.774,0.067 6.334,1.507 6.334,3.267 L6.334,9.934 L1.907,14.361 C0.68,15.588 0.68,17.561 1.907,18.788 L7.934,24.815 C8.521,25.455 9.374,25.722 10.174,25.722 C10.974,25.722 11.774,25.402 12.414,24.815 L20.041,17.135 L26.601,17.135 L23.348,13.828 L23.347,13.827 Z M7.4,3.267 C7.4,2.094 8.36,1.134 9.533,1.134 C10.706,1.134 11.666,2.094 11.666,3.267 L11.666,4.6 L7.399,8.867 L7.399,3.267 L7.4,3.267 Z M19.613,16.067 L11.613,24.067 C11.24,24.44 10.706,24.654 10.12,24.654 C9.587,24.654 9.053,24.441 8.68,24.067 L2.653,18.04 C1.853,17.24 1.853,15.907 2.653,15.107 L11.666,6.147 L11.666,12.867 L12.733,12.867 L12.733,5.08 L12.893,4.92 L24.04,16.067 L19.613,16.067 Z" id="Shape"></path>
            <path d="M29.213,25.987 C28.893,23.107 25.8,19.267 25.8,19.267 C25.8,19.267 22.653,23.16 22.387,26.04 C22.387,26.2 22.387,26.307 22.387,26.467 C22.387,28.387 23.934,29.934 25.854,29.934 C27.774,29.934 29.321,28.387 29.321,26.467 C29.268,26.307 29.268,26.147 29.214,25.987 L29.213,25.987 Z M25.8,28.867 C24.467,28.867 23.4,27.8 23.4,26.467 C23.4,26.36 23.4,26.307 23.4,26.2 C23.56,24.6 24.787,22.52 25.747,21.08 C26.707,22.467 27.934,24.6 28.147,26.147 C28.147,26.254 28.147,26.36 28.147,26.467 C28.2,27.8 27.134,28.867 25.8,28.867 Z" id="Shape"></path>
        </g>
    </g>
</svg>