<?xml version="1.0" encoding="UTF-8"?>
<svg width="30px" height="30px" viewBox="0 0 30 30" version="1.1" xmlns="http://www.w3.org/2000/svg" xmlns:xlink="http://www.w3.org/1999/xlink">
    <!-- Generator: Sketch 52.6 (67491) - http://www.bohemiancoding.com/sketch -->
    <title>plane</title>
    <desc>Created with Sketch.</desc>
    <g id="Page-1" stroke="none" stroke-width="1" fill="none" fill-rule="evenodd">
        <g id="plane" fill="#787878" fill-rule="nonzero">
            <path d="M8.123,29.464 L6.793,23.196 L0.475,21.799 L1.766,19.324 L7.551,19.008 C7.848,18.622 8.511,17.774 8.925,17.36 L14.196,12.089 L3.207,6.701 L5.989,3.919 L19.921,6.363 L24.854,1.43 C25.439,0.845 26.35,0.536 27.488,0.536 C28.264,0.536 28.883,0.679 28.909,0.685 L29.209,0.755 L29.298,1.05 C29.767,2.6 29.485,4.348 28.628,5.205 L23.672,10.161 L26.106,24.036 L23.324,26.818 L17.957,15.873 L13.034,20.797 C12.516,21.314 11.411,22.333 11.001,22.709 L10.57,28.134 L8.121,29.463 L8.123,29.464 Z M2.065,21.059 L7.695,22.303 L8.871,27.847 L9.556,27.475 L9.974,22.207 L10.129,22.065 C10.145,22.051 11.671,20.656 12.282,20.045 L18.26,14.066 L23.627,25.011 L24.961,23.676 L22.527,9.8 L27.876,4.452 C28.34,3.988 28.621,2.854 28.36,1.669 C28.144,1.637 27.834,1.603 27.49,1.603 C26.897,1.603 26.091,1.704 25.609,2.185 L20.284,7.51 L6.351,5.066 L5.016,6.4 L16.005,11.788 L9.679,18.114 C9.196,18.596 8.261,19.836 8.251,19.848 L8.102,20.046 L2.43,20.356 L2.064,21.058 L2.065,21.059 Z" id="Shape"></path>
        </g>
    </g>
</svg>