<?xml version="1.0" encoding="UTF-8"?>
<svg width="32px" height="20px" viewBox="0 0 32 20" version="1.1" xmlns="http://www.w3.org/2000/svg" xmlns:xlink="http://www.w3.org/1999/xlink">
    <!-- Generator: Sketch 52.6 (67491) - http://www.bohemiancoding.com/sketch -->
    <title>look</title>
    <desc>Created with Sketch.</desc>
    <g id="Page-1" stroke="none" stroke-width="1" fill="none" fill-rule="evenodd">
        <g id="look" fill="#FFFFFF" fill-rule="nonzero">
            <path d="M16,0.404 C10.153,0.404 5.596,4.064 0.006,9.997 C4.822,15.07 8.863,19.597 16,19.597 C23.137,19.597 28.382,13.867 31.994,10.105 C28.297,5.698 23.051,0.405 16,0.405 L16,0.404 Z M16,18.53 C9.664,18.53 5.84,14.601 1.476,9.998 C6.668,4.584 10.796,1.471 16,1.471 C22.161,1.471 26.975,5.914 30.558,10.062 C27.035,13.736 22.265,18.531 16,18.531 L16,18.53 Z" id="Shape"></path>
            <path d="M16,3.603 C12.472,3.603 9.602,6.473 9.602,10 C9.602,13.527 12.472,16.397 16,16.397 C19.528,16.397 22.398,13.527 22.398,10 C22.398,6.473 19.528,3.603 16,3.603 Z M16,15.331 C13.061,15.331 10.669,12.94 10.669,10 C10.669,7.06 13.061,4.669 16,4.669 C18.939,4.669 21.331,7.06 21.331,10 C21.331,12.939 18.939,15.331 16,15.331 Z" id="Shape"></path>
            <path d="M16,6.268 C13.942,6.268 12.268,7.942 12.268,10 C12.268,12.058 13.942,13.732 16,13.732 C18.058,13.732 19.732,12.058 19.732,10 C19.732,7.942 18.058,6.268 16,6.268 Z M16,12.666 C14.53,12.666 13.334,11.47 13.334,10 C13.334,8.53 14.53,7.334 16,7.334 C17.47,7.334 18.666,8.53 18.666,10 C18.666,11.47 17.47,12.666 16,12.666 Z" id="Shape"></path>
        </g>
    </g>
</svg>